<svg xmlns="http://www.w3.org/2000/svg" width="24" height="24" viewBox="0 0 24 24">
    <g data-name="그룹 101675" transform="translate(4 4)">
        <path data-name="빼기 1" d="M11.556 16H4.445A4.45 4.45 0 0 1 0 11.555V4.444A4.449 4.449 0 0 1 4.445 0h7.111v1.333H4.445a3.115 3.115 0 0 0-3.111 3.111v7.111a3.115 3.115 0 0 0 3.111 3.111h7.111a3.115 3.115 0 0 0 3.111-3.111V7.111H16v4.444A4.449 4.449 0 0 1 11.556 16z" style="fill:#fff"/>
        <circle data-name="타원 4" cx=".665" cy=".665" transform="translate(14.65 6.448)" style="fill:#fff" r=".665"/>
        <circle data-name="타원 5" cx=".665" cy=".665" transform="translate(10.882 .02)" style="fill:#fff" r=".665"/>
        <path data-name="패스 7" d="m11106.129 1213.979 2.79 2.79 6.865-6.865" transform="translate(-11100.675 -1207.309)" style="stroke:#fff;stroke-linecap:round;stroke-linejoin:round;stroke-width:1.5px;fill:none"/>
    </g>
</svg>
